<?xml version="1.0" encoding="utf-8"?>
<!-- Generator: Adobe Illustrator 24.0.0, SVG Export Plug-In . SVG Version: 6.00 Build 0)  -->
<svg version="1.1" id="图层_1" xmlns="http://www.w3.org/2000/svg" xmlns:xlink="http://www.w3.org/1999/xlink" x="0px" y="0px"
	 viewBox="0 0 64 64" style="enable-background:new 0 0 64 64;" xml:space="preserve">
<style type="text/css">
	.st0{fill:#FFFFFF;}
</style>
<path class="st0" d="M29.7,29.7V16c0-1.3,1-2.3,2.3-2.3s2.3,1,2.3,2.3v13.7H48c1.3,0,2.3,1,2.3,2.3s-1,2.3-2.3,2.3H34.3V48
	c0,1.3-1,2.3-2.3,2.3s-2.3-1-2.3-2.3V34.3H16c-1.3,0-2.3-1-2.3-2.3s1-2.3,2.3-2.3H29.7z M32,0c17.7,0,32,14.3,32,32S49.7,64,32,64
	S0,49.7,0,32S14.3,0,32,0z M32,59.4c15.1,0,27.4-12.3,27.4-27.4S47.1,4.6,32,4.6S4.6,16.9,4.6,32S16.9,59.4,32,59.4z"/>
</svg>
