<?xml version="1.0" encoding="utf-8"?>
<!-- Generator: Adobe Illustrator 24.0.0, SVG Export Plug-In . SVG Version: 6.00 Build 0)  -->
<svg version="1.1" id="图层_1" xmlns="http://www.w3.org/2000/svg" xmlns:xlink="http://www.w3.org/1999/xlink" x="0px" y="0px"
	 viewBox="0 0 88 88" style="enable-background:new 0 0 88 88;" xml:space="preserve">
<style type="text/css">
	.st0{fill:#333333;}
	.st1{fill:#333333;stroke:#333333;stroke-width:0.25;stroke-miterlimit:10;}
	.st2{fill:#333333;stroke:#333333;stroke-width:0.75;stroke-miterlimit:10;}
	.st3{fill:#333333;stroke:#333333;stroke-width:0.5;stroke-miterlimit:10;}
	.st4{fill:none;stroke:#333333;stroke-width:6;stroke-linecap:round;stroke-miterlimit:10;}
	.st5{fill:#333333;stroke:#333333;stroke-width:3;stroke-miterlimit:10;}
	.st6{fill:#333333;stroke:#333333;stroke-width:2;stroke-miterlimit:10;}
</style>
<g>
	<path class="st0" d="M432.5,41h-53.4c-3.6,0-6.6,3-6.6,6.6v61.8c0,3.6,3,6.6,6.6,6.6h53.4c3.6,0,6.6-3,6.6-6.6V47.6
		C439.1,43.9,436.1,41,432.5,41z M381.5,109.2l-0.4,0c-1.1-0.1-1.9-1.1-1.9-2.2l0-57l0-0.4c0.1-1.1,1.1-1.9,2.2-1.9l48.6,0l0.4,0
		c1.1,0.1,1.9,1.1,1.9,2.2v57l0,0.3c-0.1,1.1-1.1,1.9-2.2,1.9c0,0,0,0,0,0L381.5,109.2z"/>
	<g>
		<g>
			<path class="st0" d="M388.6,91c-2,0-3.6,1.5-3.6,3.4s1.6,3.4,3.6,3.4c2,0,3.6-1.5,3.6-3.4S390.5,91,388.6,91z"/>
			<path class="st0" d="M423.3,91.4C423.3,91.4,423.3,91.4,423.3,91.4h-26.5l-0.6,0.1c-1.5,0.3-2.6,1.6-2.6,3.1
				c0,1.7,1.4,3.1,3.2,3.1c0,0,0,0,0,0h26.5l0.6-0.1c1.5-0.3,2.6-1.6,2.6-3.1C426.6,92.7,425.1,91.4,423.3,91.4z"/>
		</g>
		<g>
			<path class="st0" d="M388.6,59C388.6,59,388.6,59,388.6,59c-2,0-3.6,1.5-3.6,3.4c0,1.9,1.6,3.4,3.6,3.4c2,0,3.6-1.5,3.6-3.4
				C392.1,60.5,390.5,59,388.6,59z"/>
			<path class="st0" d="M423.3,59.3C423.3,59.3,423.3,59.3,423.3,59.3h-26.5l-0.6,0.1c-1.5,0.3-2.6,1.6-2.6,3.1
				c0,1.7,1.4,3.1,3.2,3.1c0,0,0,0,0,0h26.5l0.6-0.1c1.5-0.3,2.6-1.6,2.6-3.1C426.6,60.7,425.1,59.3,423.3,59.3z"/>
		</g>
		<g>
			<path class="st0" d="M388.6,75L388.6,75c-2,0-3.6,1.5-3.6,3.4c0,1.9,1.6,3.4,3.6,3.4c2,0,3.6-1.5,3.6-3.4S390.5,75,388.6,75z"/>
			<path class="st0" d="M423.3,75.3C423.3,75.3,423.3,75.3,423.3,75.3h-26.5l-0.6,0.1c-1.5,0.3-2.6,1.6-2.6,3.1
				c0,1.7,1.5,3.1,3.2,3.1c0,0,0,0,0,0h26.5l0.6-0.1c1.5-0.3,2.6-1.6,2.6-3.1C426.6,76.7,425.1,75.3,423.3,75.3z"/>
		</g>
	</g>
</g>
<g>
	<path class="st0" d="M424.5-177c-0.4,1,0.2,2.1,1.2,2.5c0.3,0.1,0.8,0.4,1.4,0.3v0l12.3-3.5c0.5-0.2,1-0.5,1.4-0.9l33-37
		c4.2-4.8,3-6.1-0.7-9.9l-2.7-2.8c-1.3-1.4-3-2.4-4.7-2.4c-1.3,0-3,0.9-3.8,1.9l-33.6,37.2c-0.2,0.3-0.4,0.6-0.5,1
		C427.2-188.1,424.5-177,424.5-177z M467-223.1l1.9,1.8c0.9,0.8,0.9,2.2,0.2,3l-27.1,31.1c-0.8,0.9-2.2,1-3.1,0.2l-2.5-2.2
		c-0.9-0.8-1-2.2-0.2-3.1l27.6-30.6C464.7-223.9,466.1-223.9,467-223.1z M433.6-184.3L433.6-184.3c1.3,1.1,1,3.2-0.7,3.8l0,0
		c-1.6,0.5-3.2-0.9-2.8-2.6l0,0C430.5-184.7,432.4-185.3,433.6-184.3z"/>
	<path class="st0" d="M474.6-205.2c-0.4-0.2-0.9-0.3-1.4-0.2c-1.7,0.4-2.7,2.1-2.7,3.8v35.9c0,1.5,0.5,2.4-2.1,2.4h-52.7
		c-2.4,0-2.1-1-2.1-2.4v-57.8c0-1.5-0.3-2.4,2.1-2.4h34c1.8,0.1,3.8-0.9,3.8-2.9c0-3-2-3.9-3.8-3.9h-34.4c-7,0-8.1,3.4-8.1,8.7v58.3
		c0,4.9,2.3,9.2,8.1,9.2h53.6c7.2,0,8.1-3.9,8.1-9.2v-35.9C476.9-203.3,475.9-204.6,474.6-205.2z"/>
</g>
<g>
	<path class="st0" d="M352.4-164h-30.7l-0.1,0c-0.1,0-0.1-0.1-0.1-0.2v-60.7l0-0.1c0-0.1,0.1-0.1,0.2-0.1h52.9l0.1,0
		c0.1,0,0.1,0.1,0.1,0.2v23.4l0,0.5c0.2,1.7,1.6,3,3.2,3c1.8,0,3.2-1.5,3.2-3.5v-23.4l0-0.7c-0.3-3.6-3.2-6.4-6.6-6.4h-52.9l-0.7,0
		c-3.3,0.4-5.9,3.4-5.9,7.1v60.7l0,0.7c0.3,3.7,3.2,6.4,6.6,6.4h30.7l0.5,0c1.6-0.3,2.7-1.7,2.7-3.4
		C355.6-162.4,354.2-164,352.4-164z"/>
	<path class="st0" d="M376.2-173.3c4.3-6.2,3.6-14.8-1.9-20.4c-6.2-6.3-16.3-6.3-22.5,0l0,0c-6.3,6.2-6.4,16.3-0.3,22.6
		c5.5,5.7,14.3,6.4,20.6,1.9l8.7,8.7l0.3,0.3c1.2,0.9,2.8,0.7,3.8-0.3c1.1-1.1,1.1-3,0-4.1L376.2-173.3z M356.3-175.6
		c-3.7-3.8-3.7-9.8,0-13.6c3.7-3.8,9.8-3.8,13.5,0c3.6,3.6,3.7,9.3,0.4,13.1c-0.2,0.1-0.4,0.2-0.5,0.4c0,0,0,0,0,0
		c-0.2,0.2-0.3,0.3-0.4,0.5C365.6-171.8,359.9-172,356.3-175.6z"/>
	<path class="st0" d="M343.7-194.2c1.6-0.2,2.7-1.6,2.7-3.2c0-1.8-1.4-3.2-3.2-3.2h-13l-0.5,0c-1.6,0.2-2.7,1.6-2.7,3.2
		c0,1.8,1.4,3.2,3.2,3.2h13L343.7-194.2z"/>
	<path class="st0" d="M361.7-211.3c1.6-0.2,2.7-1.6,2.7-3.2c0-1.8-1.4-3.2-3.2-3.2h-31.1l-0.5,0c-1.6,0.2-2.8,1.6-2.8,3.2
		c0,1.8,1.5,3.2,3.2,3.2h31.1L361.7-211.3z"/>
</g>
<g>
	<path class="st0" d="M990.4-163.8h-28.7l-0.1,0c-0.1,0-0.1-0.1-0.1-0.2v-60.7l0-0.1c0-0.1,0.1-0.1,0.2-0.1h52.9l0.1,0
		c0.1,0,0.1,0.1,0.1,0.2v36.5l0,0.5c0.2,1.7,1.6,3,3.2,3c1.8,0,3.2-1.5,3.2-3.5v-36.5l0-0.7c-0.3-3.6-3.2-6.4-6.6-6.4h-52.9l-0.7,0
		c-3.3,0.4-5.9,3.4-5.7,7.1v60.7v0.7c0.3,3.7,3,6.4,6.4,6.4h28.7l0.5,0c1.6-0.3,2.7-1.7,2.7-3.4
		C993.6-162.3,992.1-163.8,990.4-163.8z"/>
	<path class="st0" d="M993-191.8c0-1.8-1.2-3.1-3-3.1h-21.7c-1.8,0-3,1.2-3,3.1c0,1.8,1.2,3.1,3,3.1H990
		C991.8-188.7,993-189.9,993-191.8z"/>
	<path class="st0" d="M1020.8-174.1h-9.5v-9.7c0-1.8-1.2-3.1-3-3.1c-1.8,0-3,1.2-3,3.1v9.7h-9.5c-1.8,0-3,1.2-3,3.1
		c0,1.8,1.2,3.1,3,3.1h9.5v9.7c0,1.8,1.2,3.1,3,3.1c1.8,0,3-1.2,3-3.1v-9.7h9.5c1.8,0,3-1.2,3-3.1
		C1023.8-172.9,1022.6-174.1,1020.8-174.1z"/>
	<path class="st0" d="M1005.8-210c0-1.8-1.2-3.1-3-3.1h-34.5c-1.8,0-3,1.2-3,3.1c0,1.8,1.2,3.1,3,3.1h34.5
		C1004.6-206.9,1005.8-208.2,1005.8-210z"/>
</g>
<g>
	<path class="st0" d="M821.6-196.6c1.6,0,3-1.3,3-3c0-1.6-1.3-3-3-3h-6.7l6.8-6.8c1.2-1.2,1.2-3.1,0-4.2c-1.2-1.2-3.1-1.2-4.2,0
		l-8.8,8.8l-8.8-8.8c-1.2-1.2-3.1-1.2-4.2,0c-1.2,1.2-1.2,3.1,0,4.2l6.8,6.8h-6.7c-1.6,0-3,1.3-3,3c0,1.6,1.3,3,3,3h9.8v6h-9.8
		c-1.6,0-3,1.3-3,3c0,1.6,1.3,3,3,3h9.8v11c0,1.6,1.3,3,3,3s3-1.3,3-3v-11h10.1c1.6,0,3-1.3,3-3c0-1.6-1.3-3-3-3h-10.1v-6H821.6z"/>
	<path class="st0" d="M835.5-232.3h-53.7c-3.3,0-6,2.7-6,6v11.9h-3c-1.6,0-3,1.3-3,3c0,1.6,1.3,3,3,3h3v11.9h-3c-1.6,0-3,1.3-3,3
		c0,1.6,1.3,3,3,3h3v11.9h-3c-1.6,0-3,1.3-3,3c0,1.6,1.3,3,3,3h3v9.9c0,3.3,2.7,6,6,6h53.7c3.3,0,6-2.7,6-6v-63.6
		C841.5-229.6,838.8-232.3,835.5-232.3z M835.5-164.7l0,0.2c0,1.5,0.2,1.8-2,1.8h-49.7l-0.2,0c-1.9,0-1.8-0.2-1.8-2v-59.6l0-0.2
		c0-1.4-0.2-1.8,2-1.8h50.8c0.5,0,0.9,0.4,0.9,0.9V-164.7z"/>
</g>
<g>
	<path class="st0" d="M151.7-213.4h32.5c1.8,0,3-1.2,3-3.1c0-1.8-1.2-3.1-3-3.1h-32.5c-1.8,0-3,1.2-3,3.1
		C148.6-214.6,149.9-213.4,151.7-213.4z"/>
	<path class="st0" d="M151.7-198.8h15.7c1.8,0,3-1.2,3-3.1c0-1.8-1.2-3.1-3-3.1h-15.7c-1.8,0-3,1.2-3,3.1
		C148.6-200.1,149.9-198.8,151.7-198.8z"/>
	<path class="st0" d="M199.1-231.9l-57.4-0.2c-2.4,0-4.3,2.2-4.3,4.9l-0.3,65.1c0,2.7,1.9,5,4.3,5l26.5,0.1c1.6,0,2.9-1.5,2.9-3.3
		c0-1.8-1.3-3.3-2.9-3.3l-25.1-0.1l0.2-61.8l54.6,0.2l-0.1,29.7c0,1.8,1.3,3.3,2.9,3.3c1.6,0,2.9-1.5,2.9-3.3l0.1-31.4
		C203.4-229.7,201.5-231.9,199.1-231.9z"/>
	<path class="st1" d="M198.9-185l-28.7-0.2l6.3-5c1.1-1.1,1.1-2.8,0-3.9c-1.1-1.1-2.9-1.1-4.1,0l-11,9.5c-0.6,0.5-1.1,1.3-1.1,2.1
		c0,0.8,0.3,1.5,0.8,2c0,0,0,0,0,0c0,0,0,0,0.1,0.1c0,0,0,0,0,0l11.1,9.7c1.1,1.1,2.9,1.1,4.1,0c1.1-1.1,1.1-2.8,0-3.9l-6.3-5
		l27.3,0.1l-0.1,17l-15.4-0.1c-1.6,0-2.9,1.2-2.9,2.7c0,1.5,1.3,2.8,2.9,2.8l16.9,0.1c2.4,0,4.3-1.8,4.3-4.1l0.1-19.8
		C203.2-183.1,201.3-185,198.9-185z"/>
</g>
<g>
	<path class="st2" d="M978.7-36.7c0.4,2.5,3.2,3.1,4.7,1.6l12.8-13.4c0,0,0,0,0,0l12.8,13.4c0.5,0.5,1.2,0.8,2,0.8
		c0.7,0,1.4-0.3,2-0.8c1.1-1.1,1.1-2.9,0-4l-12.9-13.4c0,0,0,0,0,0l12.9-13.4c1.1-1.1,1.1-2.9,0-4v0c-0.5-0.5-1.2-0.8-2-0.8
		c0,0,0,0,0,0c-0.7,0-1.4,0.3-2,0.8l-12.8,13.4c0,0,0,0,0,0l-12.7-13.2c-1-1.1-2.8-1.3-3.9-0.2c-1.2,1.1-1.2,3-0.1,4.1l12.9,13.4
		c0,0,0,0,0,0l-12.7,13.2C978.9-38.6,978.5-37.6,978.7-36.7z"/>
	<path class="st0" d="M1022-84.9h-48.2c-2,0-3.8,1.1-4.8,2.8l-19,25.9c-1.6,2.2-1.6,5.1,0,7.3l14.5,19.1c0,0,0,0,0,0l4.7,7.1
		c1.1,1.6,2.8,2.5,4.6,2.5h48.2c3.1,0,5.7-2.6,5.7-5.9v-53C1027.7-82.3,1025.1-84.9,1022-84.9z M1021.4-26.7
		C1021.4-26.7,1021.4-26.6,1021.4-26.7l-44.9,0c-0.9,0-2.1-0.6-2.7-1.4l-18.6-24.5c0,0,0,0,0,0l18.6-24.6c0.5-0.7,1.8-1.4,2.7-1.4
		h44.9c0,0,0,0,0,0L1021.4-26.7z"/>
</g>
<g>
	<path class="st0" d="M592.7-157.7h22.7l0.5,0c1.6-0.3,2.7-1.7,2.7-3.4c0-1.9-1.4-3.5-3.2-3.5h-22.7l-0.1,0c-0.1,0-0.1-0.1-0.1-0.2
		v-60.7l0-0.1c0-0.1,0.1-0.1,0.2-0.1h52.9l0.1,0c0.1,0,0.1,0.1,0.1,0.2v24.9l0,0.5c0.2,1.7,1.6,3,3.2,3c1.8,0,3.2-1.5,3.2-3.5v-24.9
		l0-0.7c-0.3-3.6-3.2-6.4-6.6-6.4h-52.9l-0.7,0c-3.3,0.4-5.9,3.4-5.9,7.1v60.7l0,0.7C586.5-160.5,589.4-157.7,592.7-157.7z"/>
	<path class="st0" d="M619.6-192.8c1.6-0.2,2.7-1.6,2.7-3.2c0-1.8-1.4-3.2-3.2-3.2h-17l-0.5,0c-1.6,0.2-2.7,1.6-2.7,3.2
		c0,1.8,1.4,3.2,3.2,3.2h17L619.6-192.8z"/>
	<path class="st0" d="M636.7-210c1.6-0.2,2.7-1.6,2.7-3.2c0-1.8-1.4-3.2-3.2-3.2h-34.1l-0.5,0c-1.6,0.2-2.8,1.6-2.8,3.2
		c0,1.8,1.5,3.2,3.2,3.2h34.1L636.7-210z"/>
	<path class="st3" d="M645.7-177.5c-0.5-3.6-3.4-6.4-7-7c-2.7-0.4-5.3,0.5-7.3,2.4c-1.9,1.9-2.8,4.5-2.3,7.2c0.5,3.6,3.4,6.4,7,7
		c0.4,0.1,0.9,0.1,1.3,0.1c2.2,0,4.3-0.9,5.9-2.5C645.2-172.2,646.1-174.8,645.7-177.5z M637.4-172.5c-2,0-3.7-1.6-3.7-3.7
		c0-2,1.6-3.7,3.7-3.7c2,0,3.7,1.6,3.7,3.7C641-174.2,639.4-172.5,637.4-172.5z"/>
	<path class="st3" d="M656.5-178.9H656c-1.2-8.3-7.7-14.8-16-16v-0.5c0-1.5-1.2-2.7-2.7-2.7c-1.5,0-2.7,1.2-2.7,2.7v0.5
		c-8.3,1.2-14.8,7.7-16,16h-0.5c-1.5,0-2.7,1.2-2.7,2.7c0,1.5,1.2,2.7,2.7,2.7h0.5c1.2,8.3,7.7,14.8,16,16v0.5
		c0,1.5,1.2,2.7,2.7,2.7c1.5,0,2.7-1.2,2.7-2.7v-0.5c8.3-1.2,14.8-7.7,16-16h0.5c1.5,0,2.7-1.2,2.7-2.7
		C659.2-177.7,658-178.9,656.5-178.9z M647.9-176.2c0,1.5,1.2,2.7,2.7,2.7c-1.1,5.3-5.2,9.4-10.5,10.5c0-1.5-1.2-2.7-2.7-2.7
		c-1.5,0-2.7,1.2-2.7,2.7c-5.3-1.1-9.4-5.2-10.5-10.5c1.5,0,2.7-1.2,2.7-2.7s-1.2-2.7-2.7-2.7c1.1-5.3,5.2-9.4,10.5-10.5
		c0,1.5,1.2,2.7,2.7,2.7c1.5,0,2.7-1.2,2.7-2.7c5.3,1.1,9.4,5.2,10.5,10.5C649.1-178.9,647.9-177.7,647.9-176.2z"/>
</g>
<g>
	<path class="st0" d="M231.7-301.2c-3.4,0-6.1,2.8-6.1,6.1v52.5c0,3.4,2.8,6.1,6.1,6.1h43.9c6,0,7.9-3,7.9-7.9v-36.1
		c0-1.8-0.7-3.5-2-4.8l-15.1-15.1c-0.6-0.6-1.4-0.9-2.2-0.9H231.7z M277.7-244.3c0,1.1,0.2,1.9-2,1.9h-43.9c-0.1,0-0.2-0.1-0.2-0.2
		v-50.8c0-1.1,0.9-2,2-2l28.3-0.2c0.7,0,1.4,0.3,1.9,0.8l13.2,13.2c0.5,0.5,0.8,1.2,0.8,1.9L277.7-244.3z"/>
	<path class="st0" d="M286.8-311.7l-42.3,0h0c-1.3,0-2.6,0.3-3.8,0.9c-2.6,1.5-4.1,4.1-4.1,7.1v0.9h6v-0.9c0-1.1,0.9-2,1.9-2h42.2h0
		c0.5,0,1,0.2,1.4,0.6c0.4,0.4,0.6,0.9,0.6,1.5v50.9c0,1.1-0.9,2-2,2h-0.8v6h0.5h0.3c4.4,0,7.9-4.2,7.9-8.4v-48
		C294.6-308,291.1-311.6,286.8-311.7z"/>
	<path class="st0" d="M236.1-255.5c0.3,1.4,1.6,2.2,3,2.2h28.4c1.9,0,3.4-1.8,2.9-3.7c-0.3-1.4-1.6-2.2-3-2.2H239
		C237.1-259.2,235.6-257.4,236.1-255.5z"/>
	<path class="st0" d="M258.1-275.9H239c-1.9,0-3.4,1.8-2.9,3.7c0.3,1.4,1.6,2.2,3,2.2h19.1c1.9,0,3.4-1.8,2.9-3.7
		C260.8-275.1,259.4-275.9,258.1-275.9z"/>
</g>
<g>
	<path class="st0" d="M17.3,28.3c-1.7,0.1-3.1,1.7-3.1,3.4l0,40.6l0,0.2c0.1,5.3,4.4,9.6,9.8,9.6h39.7l0.2,0c6.3,0,9.6-4.4,9.6-9.8
		V31.5c0-1.8-1.6-3.3-3.4-3.2c-1.7,0.1-3.1,1.7-3.1,3.4v40.7c0,1.8-1.5,3.2-3.3,3.2H24l0,0c-1.8,0-3.2-1.5-3.2-3.3V31.5
		C20.7,29.6,19.1,28.2,17.3,28.3z"/>
	<path class="st0" d="M55,61.5v-24c0-1.8-1.5-3.3-3.3-3.3c-1.8,0-3.3,1.5-3.3,3.3v24c0,1.8,1.5,3.3,3.3,3.3
		C53.6,64.8,55,63.3,55,61.5z"/>
	<path class="st0" d="M10.5,23.6h66.6c1.8,0,3.3-1.5,3.3-3.3c0-1.8-1.5-3.3-3.3-3.3H10.5c-1.8,0-3.3,1.5-3.3,3.3
		C7.2,22.1,8.7,23.6,10.5,23.6z"/>
	<path class="st0" d="M35.7,13.3h17.1c1.8,0,3.3-1.5,3.3-3.3c0-1.8-1.5-3.3-3.3-3.3H35.7c-1.8,0-3.3,1.5-3.3,3.3
		C32.5,11.9,33.9,13.3,35.7,13.3z"/>
	<path class="st0" d="M39.1,61.5v-24c0-1.8-1.5-3.3-3.3-3.3c-1.8,0-3.3,1.5-3.3,3.3v24c0,1.8,1.5,3.3,3.3,3.3
		C37.6,64.8,39.1,63.3,39.1,61.5z"/>
</g>
<g>
	<path class="st0" d="M1206.1-161.6v-66c0-2.6-2.1-4.8-4.8-4.8h-57.1c-2.6,0-4.8,2.1-4.8,4.8v11.8c0,0.6,0.3,1.1,0.7,1.5
		c2.5,2,5.3,0.3,5.3-2.1v-10c0,0,0,0,0,0l0.1,0.8c0-0.4,0.4-0.7,0.8-0.7h53c0.4,0,0.8,0.4,0.8,0.8v60.8c0,0,0,0,0,0l-0.1,1.3
		c0,0.4-0.3,0.7-0.7,0.7h-51.9l-1.3,0c-0.4,0-0.7-0.3-0.7-0.7v-9.9c0-0.6-0.3-1.1-0.7-1.5c-2.5-2-5.3-0.3-5.3,2.1v11.2
		c0,2.6,2.1,4.8,4.8,4.8h57.1C1204-156.8,1206.1-158.9,1206.1-161.6z"/>
	<path class="st0" d="M1140.4-191.4h35.7l-12.1,10.2c-1.3,1.1-1.5,3.1-0.4,4.4c0.6,0.7,1.5,1.1,2.4,1.1c0.7,0,1.4-0.2,2-0.7
		l18.6-15.7c0.7-0.6,1.1-1.5,1.1-2.4s-0.4-1.8-1.1-2.4l-18.6-15.7c-1.3-1.1-3.3-1-4.4,0.4c-1.1,1.3-1,3.3,0.4,4.4l12.1,10.2h-35.7
		c-1.7,0-3.1,1.4-3.1,3.1S1138.7-191.4,1140.4-191.4z"/>
</g>
<g>
	<path class="st0" d="M1237-157.7h24.7l0.5,0c1.6-0.3,2.7-1.7,2.7-3.4c0-1.9-1.4-3.5-3.2-3.5H1237l-0.1,0c-0.1,0-0.1-0.1-0.1-0.2
		v-60.7l0-0.1c0-0.1,0.1-0.1,0.2-0.1h52.9l0.1,0c0.1,0,0.1,0.1,0.1,0.2v24.9l0,0.5c0.2,1.7,1.6,3,3.2,3c1.8,0,3.2-1.5,3.2-3.5v-24.9
		l0-0.7c-0.3-3.6-3.2-6.4-6.6-6.4H1237l-0.7,0c-3.3,0.4-5.9,3.4-5.9,7.1v60.7l0,0.7C1230.8-160.5,1233.6-157.7,1237-157.7z"/>
	<path class="st0" d="M1263.9-192.8c1.6-0.2,2.7-1.6,2.7-3.2c0-1.8-1.4-3.2-3.2-3.2h-17l-0.5,0c-1.6,0.2-2.7,1.6-2.7,3.2
		c0,1.8,1.4,3.2,3.2,3.2h17L1263.9-192.8z"/>
	<path class="st0" d="M1280.9-210c1.6-0.2,2.7-1.6,2.7-3.2c0-1.8-1.4-3.2-3.2-3.2h-34.1l-0.5,0c-1.6,0.2-2.8,1.6-2.8,3.2
		c0,1.8,1.5,3.2,3.2,3.2h34.1L1280.9-210z"/>
	<g>
		<path class="st4" d="M1284.6-185.3c7.2,0.2,12.9,6.1,12.7,13.3c-0.2,7.2-6.1,12.9-13.3,12.7c-7.2-0.2-12.9-6.1-12.7-13.3"/>
		<path class="st5" d="M1281-185.9l4.7-4.3c0.5-0.5,0.5-1.2,0-1.7c-0.3-0.3-0.7-0.4-1-0.4c-0.3,0-0.6,0.1-0.8,0.3l-7.3,6.7
			c-0.3,0.3-0.4,0.6-0.4,1c0,0.4,0.2,0.7,0.5,0.9l8.2,5.6c0.6,0.4,1.4,0.3,1.8-0.3c0.4-0.5,0.3-1.3-0.3-1.7l-5.3-3.6L1281-185.9z"/>
	</g>
</g>
<g>
	<path class="st0" d="M261.3,44.1h-43.8c-2.7,0-4.8,2.2-4.8,4.9v53.9c0,2.7,2.2,4.9,4.8,4.9h43.8c2.7,0,4.8-2.2,4.8-4.9V49
		C266.1,46.3,264,44.1,261.3,44.1z M261.2,50.6v50.7l0,0.2c-0.1,0.7-0.7,1.3-1.4,1.3h-40.6l-0.2,0c-0.7-0.1-1.3-0.7-1.3-1.4V50.6
		l0-0.2c0.1-0.7,0.7-1.3,1.4-1.3h40.6C260.5,49.1,261.2,49.8,261.2,50.6z"/>
	<path class="st0" d="M255.9,79.4c0.1-0.7,0.1-1.4,0.1-2c0-3.7-1.1-7.2-3.3-10.1c-1-1.4-2.3-2.7-3.7-3.7c-0.9-0.7-2-1.3-3.1-1.7
		c-0.3-3.5-3.2-6.3-6.7-6.3c-3.5,0-6.5,2.8-6.7,6.4c-1.1,0.5-2.1,1.1-3,1.8c-1.4,1-2.6,2.3-3.6,3.7c-2.1,2.9-3.2,6.4-3.2,10
		c0,0.7,0,1.4,0.1,2.2c-1.8,1.3-2.8,3.4-2.8,5.6c0,3.8,3,6.9,6.8,6.9c1.1,0,2.1-0.3,3.1-0.8c2.8,2,6.1,3.1,9.6,3.1
		c3.5,0,6.8-1.1,9.7-3.1c1,0.5,2.1,0.8,3.2,0.8c1.8,0,3.5-0.7,4.8-2c1.3-1.3,2-3,2-4.8C259,82.8,257.8,80.7,255.9,79.4z M254.5,85.1
		c0,1.3-1.1,2.4-2.3,2.4s-2.3-1.1-2.3-2.4s1.1-2.4,2.3-2.4S254.5,83.8,254.5,85.1z M233.4,85.1c0-3.6-2.8-6.6-6.4-6.8
		c0-0.3-0.1-0.6-0.1-0.9c0-4.7,2.5-8.9,6.6-11.1c1.3,1.8,3.3,2.9,5.5,2.9c2.3,0,4.3-1.1,5.6-3c4.2,2.1,6.8,6.4,6.8,11.2
		c0,0.3,0,0.7,0,1c-3.4,0.3-6.1,3.3-6.1,6.8c0,0.9,0.2,1.8,0.5,2.7c-2,1.3-4.3,2-6.7,2c-2.3,0-4.5-0.7-6.5-1.9
		C233.2,87,233.4,86.1,233.4,85.1z M239.2,64.8c-1.3,0-2.3-1.1-2.3-2.4c0-1.3,1.1-2.4,2.3-2.4s2.3,1.1,2.3,2.4
		C241.5,63.7,240.5,64.8,239.2,64.8z M229,85.1c0,1.3-1.1,2.4-2.3,2.4s-2.3-1.1-2.3-2.4s1.1-2.4,2.3-2.4S229,83.8,229,85.1z"/>
</g>
<g>
	<path class="st1" d="M500.4-214.4v-11.9c0-3.3,2.7-6,6-6l55.7,0c3.3,0,6,2.7,6,6l0,0v63.6c0,3.3-2.7,6-6,6h-55.7c-3.3,0-6-2.7-6-6
		v-9.9V-214.4z M560.1-226.4h-51.7c-1,0-1.9,0.8-2,1.8l0,0.2v59.6c0,1,0.8,1.9,1.8,2l0.2,0h51.7c1,0,1.9-0.8,2-1.8l0-0.2v-59.6
		C562.1-225.5,561.2-226.4,560.1-226.4z"/>
	<path class="st1" d="M546.8-184.5c-4,0-7.3,2.6-8.5,6.2h-13.4c-3.8,0-6.8-3.1-6.8-6.8s3.1-6.8,6.8-6.8h0.3c1.1,3.6,4.5,6.2,8.5,6.2
		c4,0,7.3-2.6,8.5-6.2h1.3c6.7,0,12.1-5.5,12.1-12.1c0-6.7-5.5-12.1-12.1-12.1h-13.4c-1.1-3.6-4.5-6.2-8.5-6.2c-4.9,0-8.9,4-8.9,8.9
		c0,4.9,4,8.9,8.9,8.9c4,0,7.3-2.6,8.5-6.2h13.4c3.8,0,6.8,3.1,6.8,6.8c0,3.8-3.1,6.8-6.8,6.8h-1.3c-1.1-3.6-4.5-6.2-8.5-6.2
		c-4,0-7.3,2.6-8.5,6.2h-0.3v0c-6.7,0-12.1,5.5-12.1,12.1c0,6.7,5.4,12.1,12.1,12.1h13.4c1.1,3.6,4.5,6.2,8.5,6.2
		c4.9,0,8.9-4,8.9-8.9C555.7-180.5,551.7-184.5,546.8-184.5z M521.7-209.9c-2,0-3.6-1.6-3.6-3.6c0-2,1.6-3.6,3.6-3.6
		c2,0,3.6,1.6,3.6,3.6C525.2-211.5,523.6-209.9,521.7-209.9z M533.7-198.1c0.9,0,1.7,0.3,2.3,0.9c0.7,0.7,1.2,1.6,1.2,2.7
		c0,1.1-0.5,2-1.2,2.7c-0.6,0.5-1.4,0.9-2.3,0.9s-1.7-0.3-2.3-0.9c-0.7-0.7-1.2-1.6-1.2-2.7c0-1.1,0.5-2,1.2-2.7
		C532-197.8,532.8-198.1,533.7-198.1z M546.8-172c-2,0-3.6-1.6-3.6-3.6c0-2,1.6-3.6,3.6-3.6c2,0,3.6,1.6,3.6,3.6
		C550.3-173.6,548.7-172,546.8-172z"/>
</g>
<g>
	<path class="st0" d="M344.7,44.2h-44.4c-2.6,0-4.8,2.1-4.8,4.8v11.1v33.3v9.5c0,2.6,2.1,4.8,4.8,4.8h44.4c2.6,0,4.8-2.1,4.8-4.8V49
		C349.4,46.4,347.3,44.2,344.7,44.2z M344.7,101.3l0,0.2c-0.1,0.8-0.8,1.4-1.6,1.4h-41.2l-0.2,0c-0.8-0.1-1.4-0.8-1.4-1.6V50.6
		l0-0.2c0.1-0.8,0.8-1.4,1.6-1.4h41.2c0.9,0,1.6,0.7,1.6,1.6V101.3z"/>
	<path class="st0" d="M314.6,78.2h15.7c5.7,0,10.3-4.6,10.3-10.3s-4.6-10.3-10.3-10.3H319c-1-3-3.8-5.3-7.2-5.3
		c-4.1,0-7.5,3.4-7.5,7.5c0,4.1,3.4,7.5,7.5,7.5c3.4,0,6.2-2.2,7.2-5.3h11.3c3.2,0,5.8,2.6,5.8,5.8s-2.6,5.8-5.8,5.8h-15.7
		c-5.7,0-10.3,4.6-10.3,10.3c0,5.7,4.6,10.3,10.3,10.3h11.3c1,3,3.8,5.3,7.2,5.3c4.1,0,7.5-3.4,7.5-7.5c0-4.1-3.4-7.5-7.5-7.5
		c-3.4,0-6.2,2.2-7.2,5.3h-11.3c-3.2,0-5.8-2.6-5.8-5.8S311.5,78.2,314.6,78.2z M311.9,62.9c-1.7,0-3-1.3-3-3c0-1.7,1.3-3,3-3
		c1.7,0,3,1.3,3,3C314.9,61.6,313.5,62.9,311.9,62.9z M333.1,88.9c1.7,0,3,1.3,3,3c0,1.7-1.3,3-3,3c-1.7,0-3-1.3-3-3
		C330.1,90.3,331.4,88.9,333.1,88.9z"/>
</g>
<g>
	<path class="st0" d="M112.2-225.6c-0.3-3.6-3.2-6.4-6.6-6.4H52.8l-0.7,0c-3.3,0.4-5.9,3.4-5.9,7.1v60.7l0,0.7
		c0.3,3.7,3.2,6.4,6.6,6.4h29.7l0.5,0c1.6-0.3,2.7-1.7,2.7-3.4c0-1.9-1.4-3.5-3.2-3.5H52.8l-0.1,0c-0.1,0-0.1-0.1-0.1-0.2v-60.7
		l0-0.1c0-0.1,0.1-0.1,0.2-0.1h52.9l0.1,0c0.1,0,0.1,0.1,0.1,0.2v23.4l0,0.5c0.2,1.7,1.6,3,3.2,3c1.8,0,3.2-1.5,3.2-3.5v-23.4
		L112.2-225.6z"/>
	<path class="st0" d="M62.2-200.6l-0.5,0c-1.6,0.2-2.7,1.6-2.7,3.2c0,1.8,1.4,3.2,3.2,3.2h14l0.5,0c1.6-0.2,2.7-1.6,2.7-3.2
		c0-1.8-1.4-3.2-3.2-3.2H62.2z"/>
	<path class="st0" d="M93.7-211.3c1.6-0.2,2.7-1.6,2.7-3.2c0-1.8-1.4-3.2-3.2-3.2H62.2l-0.5,0c-1.6,0.2-2.8,1.6-2.8,3.2
		c0,1.8,1.5,3.2,3.2,3.2h31.1L93.7-211.3z"/>
	<path class="st0" d="M109-177.8c1.8,0,3.3-1.5,3.3-3.3c0-1.8-1.5-3.3-3.3-3.3h-3.7l4.4-4.4c1.3-1.3,1.3-3.4,0-4.6
		c-1.2-1.2-3.4-1.2-4.6,0l-6.8,6.8l-6.8-6.8c-0.6-0.6-1.4-1-2.3-1c0,0,0,0,0,0c-0.9,0-1.7,0.3-2.3,1c-0.6,0.6-1,1.4-1,2.3
		c0,0.9,0.3,1.7,1,2.3l4.4,4.4h-3.8c-1.8,0-3.3,1.5-3.3,3.3c0,1.8,1.5,3.3,3.3,3.3h7.4v4.5h-7.4c-1.8,0-3.3,1.5-3.3,3.3
		c0,1.8,1.5,3.3,3.3,3.3h7.4v8.4c0,1.8,1.5,3.3,3.3,3.3c1.8,0,3.3-1.5,3.3-3.3v-8.4h7.7c1.8,0,3.3-1.5,3.3-3.3
		c0-1.8-1.5-3.3-3.3-3.3h-7.7v-4.5H109z"/>
</g>
<g>
	<path class="st0" d="M-21.8-164h-21.7l-0.1,0c-0.1,0-0.1-0.1-0.1-0.2v-60.7l0-0.1c0-0.1,0.1-0.1,0.2-0.1H9.4l0.1,0
		c0.1,0,0.1,0.1,0.1,0.2v24.4l0,0.5c0.2,1.7,1.6,3,3.2,3c1.8,0,3.2-1.5,3.2-3.5v-24.4l0-0.7c-0.3-3.6-3.2-6.4-6.6-6.4h-52.9l-0.7,0
		c-3.3,0.4-5.9,3.4-5.9,7.1v60.7l0,0.7c0.3,3.7,3.2,6.4,6.6,6.4h21.7l0.5,0c1.6-0.3,2.7-1.7,2.7-3.4C-18.6-162.4-20-164-21.8-164z"
		/>
	<path class="st0" d="M-34.1-200.6l-0.5,0c-1.6,0.2-2.7,1.6-2.7,3.2c0,1.8,1.4,3.2,3.2,3.2h14l0.5,0c1.6-0.2,2.7-1.6,2.7-3.2
		c0-1.8-1.4-3.2-3.2-3.2H-34.1z"/>
	<path class="st0" d="M-2.5-211.3c1.6-0.2,2.7-1.6,2.7-3.2c0-1.8-1.4-3.2-3.2-3.2h-31.1l-0.5,0c-1.6,0.2-2.8,1.6-2.8,3.2
		c0,1.8,1.5,3.2,3.2,3.2H-3L-2.5-211.3z"/>
	<path class="st0" d="M14.6-173l-2.8,0c-0.3,0-0.4-0.3-0.2-0.5c1.3-1.2,2.3-2.6,2.9-4.1c0.8-1.9,1.1-4.1,0.8-6.2
		c-0.4-2.6-1.6-5-3.5-6.8c-1.9-1.8-4.3-3-6.9-3.3c-1.8-0.2-3.5,0-5.2,0.5c-1.6,0.5-3,1.4-4.3,2.5c-1.2,1.1-2.1,2.4-2.8,3.8
		c-0.7,1.5-1,3.1-1,4.8c0,1.7,0.3,3.3,1,4.8c0.7,1.5,1.6,2.8,2.8,3.8c0.1,0,0.2,0.2,0.1,0.3c-0.1,0.1-0.2,0.2-0.3,0.2h-5.4
		c-2.1,0-3.8,1.7-3.8,3.8v10.2c0,2.1,1.7,3.8,3.8,3.8h27.5c2.1,0,3.8-1.7,3.8-3.8v-7.4C21.1-172,20-173,14.6-173z M-7.6-166.5
		c0,0,0.1-0.1,0.2-0.1l2.4,0c2.3,0,4.4-1,5.7-2.9c1.9-2.8,1.5-6.5-1-8.8c-1.1-1-1.7-2.4-1.7-3.9c0-0.8,0.2-1.5,0.5-2.2
		c0.3-0.7,0.7-1.3,1.3-1.8c1.2-1.1,2.8-1.6,4.5-1.4c2.5,0.3,4.5,2.2,4.8,4.6c0.3,1.9-0.5,3.8-2,5c-1.1,0.9-2,2.2-2.3,3.5
		c-0.4,1.5-0.2,3,0.5,4.3c0.5,1.1,1.3,1.9,2.4,2.6c1,0.6,2.1,0.9,3.3,0.9h3.7c0.1,0,0.2,0.1,0.2,0.1v4.7c0,0-0.1,0.1-0.2,0.1h-22
		c-0.1,0-0.2-0.1-0.2-0.1V-166.5z"/>
</g>
<g>
	<g>
		<path class="st0" d="M-137.7-215.1V-227c0-3.3,2.7-6,6-6H-76c3.3,0,6,2.7,6,6l0,0v63.6c0,3.3-2.7,6-6,6h-55.7c-3.3,0-6-2.7-6-6
			v-9.9V-215.1z M-78-227h-51.7c-1,0-1.9,0.8-2,1.8l0,0.2v59.6c0,1,0.8,1.9,1.8,2l0.2,0H-78c1,0,1.9-0.8,2-1.8l0-0.2V-225
			C-76-226.1-76.9-227-78-227z"/>
	</g>
	<g>
		<g>
			<path class="st6" d="M-89.2-190.8h-4.9c-0.8,0-1.6-0.5-2-1.2c-0.4-0.9-0.2-1.9,0.7-2.6c1.8-1.4,3.2-3.3,4.1-5.4
				c0.9-2.2,1.2-4.7,0.9-7.1c-0.4-2.9-1.8-5.7-4-7.8c-2.2-2.1-5-3.4-7.9-3.7c-2-0.2-4,0-5.9,0.6c-1.8,0.6-3.5,1.6-4.9,2.9
				c-1.4,1.3-2.4,2.7-3.2,4.4c-0.8,1.7-1.2,3.6-1.2,5.5c0,1.9,0.4,3.8,1.2,5.5c0.7,1.7,1.8,3.2,3.2,4.4c0.8,0.8,1.9,1.9,1.5,2.9
				c-0.4,0.9-2.2,1.5-3.3,1.5h-5.3c-2.6,0-4.7,2.1-4.7,4.7v9.8c0,2.6,2.1,4.7,4.7,4.7h32.8c2.6,0,4.7-2.1,4.7-4.7v-8
				C-82.8-189.3-83.9-190.8-89.2-190.8L-89.2-190.8z M-86.8-178.1c0,1.3-1.1,2.3-2.4,2.3h-29.3c-1.3,0-2.4-1-2.4-2.3v-6.3
				c0-1.3,1.1-2.3,2.4-2.3l3.2,0c2.3,0,4.6-1,5.9-3c1.9-2.8,1.4-6.5-1.1-8.7c-1.9-1.8-3-4.2-3-6.8c0-1.3,0.3-2.6,0.8-3.8
				c0.5-1.2,1.3-2.2,2.2-3.1c2.1-1.9,4.9-2.8,7.7-2.5c4.3,0.5,7.8,3.8,8.3,8c0.5,3.3-0.8,6.5-3.5,8.6c-1.1,0.9-1.9,2.1-2.3,3.5
				c-0.4,1.4-0.2,3,0.5,4.3c0.5,1,1.3,1.9,2.3,2.5c1,0.6,2.1,0.9,3.3,0.9h4.9c1.3,0,2.4,1,2.4,2.3V-178.1z M-86.8-178.1"/>
		</g>
	</g>
</g>
<g>
	<path class="st0" d="M924.8-230h-57.6c-3.4,0-6.2,2.8-6.2,6.2v57.6c0,3.4,2.8,6.2,6.2,6.2h57.6c3.4,0,6.2-2.8,6.2-6.2v-57.6
		C931-227.2,928.2-230,924.8-230z M923.3-166.4h-54.6c-0.7,0-1.3-0.6-1.3-1.3v-54.6c0-0.7,0.6-1.3,1.3-1.3h54.6
		c0.7,0,1.3,0.6,1.3,1.3v54.6C924.6-167,924-166.4,923.3-166.4z"/>
	<path class="st0" d="M880.6-179.6c0.6,0.6,1.4,0.9,2.1,0.9s1.5-0.3,2.1-0.9l11.1-11.1l11.1,11.1c0.6,0.6,1.4,0.9,2.1,0.9
		s1.5-0.3,2.1-0.9c1.2-1.2,1.2-3.1,0-4.2L900.2-195l11.1-11.1c1.2-1.2,1.2-3.1,0-4.2c-1.2-1.2-3.1-1.2-4.2,0L896-199.2l-11.1-11.1
		c-1.2-1.2-3.1-1.2-4.2,0c-1.2,1.2-1.2,3.1,0,4.2l11.1,11.1l-11.1,11.1C879.5-182.7,879.5-180.8,880.6-179.6z"/>
</g>
<g>
	<path class="st0" d="M1101.8-229h-57.6c-3.4,0-6.2,2.8-6.2,6.2v57.6c0,3.4,2.8,6.2,6.2,6.2h57.6c3.4,0,6.2-2.8,6.2-6.2v-57.6
		C1108-226.2,1105.2-229,1101.8-229z M1100.3-165.4h-54.6c-0.7,0-1.3-0.6-1.3-1.3v-54.6c0-0.7,0.6-1.3,1.3-1.3h54.6
		c0.7,0,1.3,0.6,1.3,1.3v54.6C1101.6-166,1101-165.4,1100.3-165.4z"/>
	<path class="st0" d="M1051.3-194c0,0.8,0.3,1.6,0.9,2.1s1.3,0.9,2.1,0.9h15.7v15.7c0,0.8,0.3,1.6,0.9,2.1c0.5,0.5,1.3,0.9,2.1,0.9
		c1.7,0,3-1.3,3-3V-191h15.7c1.7,0,3-1.3,3-3c0-1.7-1.3-3-3-3H1076v-15.7c0-1.7-1.3-3-3-3c-1.7,0-3,1.3-3,3v15.7h-15.7
		C1052.6-197,1051.3-195.7,1051.3-194z"/>
</g>
<g>
	<path class="st0" d="M1393-194.5c-1.7,0-3,1.3-3,3v26.3c0,0.7-0.6,1.2-1.2,1.2h-49.5c-0.7,0-1.2-0.6-1.2-1.2v-56.5
		c0-0.7,0.6-1.2,1.2-1.2h17.3c1.7,0,3-1.3,3-3s-1.3-3-3-3h-18.7c-3.2,0-5.8,2.6-5.8,5.8v59.3c0,3.2,2.6,5.8,5.8,5.8h52.3
		c3.2,0,5.8-2.6,5.8-5.8v-27.7C1396-193.2,1394.7-194.5,1393-194.5z"/>
	<path class="st0" d="M1393.3-232.8h-24.7c-2.4,0-4.4,2-4.4,4.4v24.7c0,2.4,2,4.4,4.4,4.4h24.7c2.4,0,4.4-2,4.4-4.4v-24.7
		C1397.8-230.8,1395.8-232.8,1393.3-232.8z M1370.5-205.5v-21h21v21H1370.5z"/>
</g>
<g>
	<path class="st0" d="M1460.2-212.1c-9.8,0-17.7,7.9-17.7,17.7c0,9.8,7.9,17.7,17.7,17.7c9.8,0,17.7-7.9,17.7-17.7
		C1477.9-204.1,1470-212.1,1460.2-212.1z M1471.6-194.3c0,6.3-5.1,11.4-11.4,11.4c-6.3,0-11.4-5.1-11.4-11.4s5.1-11.4,11.4-11.4
		C1466.5-205.7,1471.6-200.6,1471.6-194.3z"/>
	<path class="st0" d="M1490.4-194.3c0-2.5,1.5-4.7,3.7-5.7l2.5-1.1l-0.7-2.6c-0.9-3.2-2.1-6.3-3.8-9.2l-1.4-2.4l-2.5,1
		c-0.7,0.3-1.5,0.4-2.3,0.4c-3.4,0-6.2-2.8-6.2-6.2c0-0.8,0.1-1.6,0.4-2.3l1-2.5l-2.4-1.4c-2.9-1.7-6-3-9.2-3.8l-2.6-0.7l-1.1,2.5
		c-1,2.3-3.2,3.7-5.7,3.7c-2.5,0-4.7-1.5-5.7-3.7l-1.1-2.5l-2.6,0.7c-3.2,0.9-6.3,2.1-9.2,3.8l-2.4,1.4l1,2.5
		c0.3,0.7,0.4,1.5,0.4,2.3c0,3.4-2.8,6.2-6.2,6.2c-0.8,0-1.6-0.1-2.3-0.4l-2.5-1l-1.4,2.4c-1.7,2.9-3,6-3.8,9.2l-0.7,2.6l2.5,1.1
		c2.3,1,3.7,3.2,3.7,5.7c0,2.5-1.5,4.7-3.7,5.7l-2.5,1.1l0.7,2.6c0.9,3.2,2.1,6.3,3.8,9.2l1.4,2.4l2.5-1c0.7-0.3,1.5-0.4,2.3-0.4
		c3.4,0,6.2,2.8,6.2,6.2c0,0.8-0.1,1.6-0.4,2.3l-1,2.5l2.4,1.4c2.9,1.7,6,3,9.2,3.8l2.6,0.7l1.1-2.5c1-2.3,3.2-3.7,5.7-3.7
		c2.5,0,4.7,1.5,5.7,3.7l1.1,2.5l2.6-0.7c3.2-0.9,6.3-2.1,9.2-3.8l2.4-1.4l-1-2.5c-0.3-0.7-0.4-1.5-0.4-2.3c0-3.4,2.8-6.2,6.2-6.2
		c0.8,0,1.6,0.1,2.3,0.4l2.5,1l1.4-2.4c1.7-2.9,3-6,3.8-9.2l0.7-2.6l-2.5-1.1C1491.8-189.6,1490.4-191.9,1490.4-194.3z
		 M1473.5-166.8c-1,0.5-2.1,0.9-3.2,1.3c-2.4-3.2-6.1-5.1-10.1-5.1c-4,0-7.7,1.9-10.1,5.1c-1.1-0.4-2.1-0.8-3.2-1.3
		c0.1-0.6,0.1-1.2,0.1-1.8c0-6.9-5.6-12.5-12.5-12.5c-0.6,0-1.2,0-1.8,0.1c-0.5-1-0.9-2.1-1.3-3.2c3.2-2.4,5.1-6.1,5.1-10.1
		c0-4-1.9-7.7-5.1-10.1c0.4-1.1,0.8-2.1,1.3-3.2c0.6,0.1,1.2,0.1,1.8,0.1c6.9,0,12.5-5.6,12.5-12.5c0-0.6,0-1.2-0.1-1.8
		c1-0.5,2.1-0.9,3.2-1.3c2.4,3.2,6.1,5.1,10.1,5.1c4,0,7.7-1.9,10.1-5.1c1.1,0.4,2.2,0.8,3.2,1.3c-0.1,0.6-0.1,1.2-0.1,1.8
		c0,6.9,5.6,12.5,12.5,12.5c0.6,0,1.2,0,1.8-0.1c0.5,1,0.9,2.1,1.3,3.2c-3.2,2.4-5.1,6.1-5.1,10.1c0,4,1.9,7.7,5.1,10.1
		c-0.4,1.1-0.8,2.1-1.3,3.2c-0.6-0.1-1.2-0.1-1.8-0.1c-6.9,0-12.5,5.6-12.5,12.5C1473.4-168,1473.4-167.4,1473.5-166.8z"/>
</g>
<g>
	<path class="st0" d="M288.4-230.5h-40.6c-2.9,0-5.3,2.4-5.3,5.3v8.3h-13.7c-2.5,0-4.5,2-4.5,4.5v46.8c0,2.5,2,4.5,4.5,4.5h46.8
		c2.5,0,4.5-2,4.5-4.5v-13.7h7.6c3.3,0,6-2.7,6-6v-39.9C293.8-228.1,291.4-230.5,288.4-230.5z M273.4-216.8h-25.1v-7.3
		c0-0.3,0.3-0.6,0.6-0.6h38.5c0.3,0,0.6,0.3,0.6,0.6v37.5c0,0.9-0.7,1.6-1.6,1.6h-6.3v-24.1C280.1-214,277.7-216.8,273.4-216.8z
		 M274.4-210.1v42.8c0,0.2-0.2,0.4-0.4,0.4h-43.3c-0.2,0-0.4-0.2-0.4-0.4v-43.3c0-0.2,0.2-0.4,0.4-0.4h42.9
		C274.3-211,274.4-211,274.4-210.1z M279.5-184.4L279.5-184.4C279.5-184.4,279.5-184.4,279.5-184.4L279.5-184.4z M243.2-216.2
		L243.2-216.2L243.2-216.2C243.2-216.2,243.2-216.2,243.2-216.2z"/>
	<path class="st0" d="M263.6-191.8h-8.5v-8.4c0-1.6-1.2-2.8-2.7-2.9c-0.9,0-1.7,0.2-2.2,0.8c-0.6,0.5-0.9,1.3-0.9,2.1v8.5h-8.4
		c-1.6,0-2.8,1.2-2.9,2.7c0,0.9,0.2,1.7,0.8,2.2c0.5,0.6,1.3,0.9,2.1,0.9h8.5v8.4c0,1.6,1.2,2.8,2.7,2.9c0.1,0,0.1,0,0.2,0
		c0.8,0,1.5-0.3,2-0.8c0.6-0.5,0.9-1.3,0.9-2.1v-8.5h8.5c1.7,0,2.9-1.2,2.9-2.9S265.3-191.8,263.6-191.8z"/>
</g>
</svg>
