<?xml version="1.0" encoding="utf-8"?>
<!-- Generator: Adobe Illustrator 24.0.0, SVG Export Plug-In . SVG Version: 6.00 Build 0)  -->
<svg version="1.1" id="图层_1" xmlns="http://www.w3.org/2000/svg" xmlns:xlink="http://www.w3.org/1999/xlink" x="0px" y="0px"
	 viewBox="0 0 64 64" style="enable-background:new 0 0 64 64;" xml:space="preserve">
<style type="text/css">
	.st0{fill:#107AED;}
</style>
<path class="st0" d="M32,0.2C14.9,0.2,1,14.4,1,32s13.9,31.8,31,31.8c17.1,0,31-14.3,31-31.8C63,14.4,49.1,0.2,32,0.2L32,0.2z
	 M32,59.7C17.2,59.7,5.2,47.3,5.2,32c0-15.3,12-27.7,26.8-27.7S58.7,16.7,58.7,32C58.7,47.3,46.8,59.7,32,59.7z M15.9,31.8
	c0,2.2,1.7,4,3.9,4s3.9-1.8,3.9-4c0-2.2-1.7-4-3.9-4C17.6,27.8,15.9,29.6,15.9,31.8z M28.9,31.8c0,2.2,1.7,4,3.9,4s3.9-1.8,3.9-4
	c0-2.2-1.7-4-3.9-4C30.7,27.8,28.9,29.6,28.9,31.8z M40.7,31.8c0,2.2,1.7,4,3.9,4s3.9-1.8,3.9-4c0-2.2-1.7-4-3.9-4
	C42.5,27.8,40.7,29.6,40.7,31.8z"/>
</svg>
