<?xml version="1.0" encoding="utf-8"?>
<!-- Generator: Adobe Illustrator 24.0.0, SVG Export Plug-In . SVG Version: 6.00 Build 0)  -->
<svg version="1.1" id="图层_1" xmlns="http://www.w3.org/2000/svg" xmlns:xlink="http://www.w3.org/1999/xlink" x="0px" y="0px"
	 viewBox="0 0 44 44" style="enable-background:new 0 0 44 44;" xml:space="preserve">
<style type="text/css">
	.st0{fill:none;stroke:#004EA2;stroke-width:2;stroke-linecap:round;stroke-linejoin:round;stroke-miterlimit:10;}
	.st1{fill:#004EA2;stroke:#004EA2;stroke-width:2;stroke-linecap:round;stroke-linejoin:round;stroke-miterlimit:10;}
	.st2{fill:none;stroke:#999999;stroke-width:2;stroke-linecap:round;stroke-linejoin:round;stroke-miterlimit:10;}
</style>
<g>
	<polyline class="st0" points="40.11,-125.87 40.11,-104.47 49.46,-104.47 	"/>
	<polyline class="st0" points="71.61,-125.87 71.61,-104.47 62.26,-104.47 	"/>
	<polyline class="st0" points="71.61,-125.87 56.03,-140.07 40.11,-125.87 	"/>
	<path class="st1" d="M49.46-104.47v-8.24c0-3.46,2.86-6.27,6.4-6.27c1.77,0,3.37,0.71,4.53,1.83c1.16,1.14,1.87,2.7,1.87,4.43v8.24
		H49.46z"/>
</g>
<g>
	<polyline class="st2" points="40.11,-125.87 40.11,-104.47 49.46,-104.47 	"/>
	<g>
		<polyline class="st2" points="71.61,-125.87 71.61,-104.47 62.26,-104.47 		"/>
		<polyline class="st2" points="71.61,-125.87 56.03,-140.07 40.11,-125.87 		"/>
		<path class="st2" d="M49.46-104.47v-8.24c0-3.46,2.86-6.27,6.4-6.27c1.77,0,3.37,0.71,4.53,1.83c1.16,1.14,1.87,2.7,1.87,4.43
			v8.24H49.46z"/>
	</g>
</g>
<g>
	<circle class="st1" cx="234.72" cy="-131.27" r="8.4"/>
	<path class="st0" d="M252.72-104.87c0-9.94-8.06-18-18-18s-18,8.06-18,18H252.72z"/>
</g>
<g>
	<circle class="st2" cx="22" cy="13" r="8.4"/>
	<path class="st2" d="M40,39.4c0-9.94-8.06-18-18-18s-18,8.06-18,18H40z"/>
</g>
<g>
	<polygon class="st1" points="115.75,-118.71 100.02,-128.95 115.75,-140.29 131.48,-128.95 	"/>
	<polyline class="st0" points="131.48,-121.72 115.75,-111.48 100.02,-121.72 	"/>
	<polyline class="st0" points="131.48,-114.49 115.75,-104.25 100.02,-114.49 	"/>
</g>
<g>
	<polygon class="st2" points="115.75,-118.71 100.02,-128.95 115.75,-140.29 131.48,-128.95 	"/>
	<polyline class="st2" points="131.48,-121.72 115.75,-111.48 100.02,-121.72 	"/>
	<polyline class="st2" points="131.48,-114.49 115.75,-104.25 100.02,-114.49 	"/>
</g>
<g>
	<polygon class="st1" points="184.45,-124.47 187.63,-118.05 194.72,-117.02 189.59,-112.01 190.8,-104.95 184.45,-108.28 
		178.11,-104.95 179.32,-112.01 174.19,-117.02 181.28,-118.05 	"/>
	<path class="st0" d="M178.11-104.94H165.1c-2.04,0-3.7-1.67-3.7-3.7v-27.27c0-2.03,1.66-3.69,3.7-3.69h18.83
		c2.04,0,3.7,1.66,3.7,3.69v17.86"/>
</g>
<g>
	<polygon class="st2" points="184.45,-124.47 187.63,-118.05 194.72,-117.02 189.59,-112.01 190.8,-104.95 184.45,-108.28 
		178.11,-104.95 179.32,-112.01 174.19,-117.02 181.28,-118.05 	"/>
	<path class="st2" d="M178.11-104.94H165.1c-2.04,0-3.7-1.67-3.7-3.7v-27.27c0-2.03,1.66-3.69,3.7-3.69h18.83
		c2.04,0,3.7,1.66,3.7,3.69v17.86"/>
</g>
</svg>
